<svg width="123" height="36" viewBox="0 0 123 36" fill="none" xmlns="http://www.w3.org/2000/svg">
<g id="INTO_LOGO">
<path id="Fill 12" fill-rule="evenodd" clip-rule="evenodd" d="M11.668 20.4657C10.9199 20.4657 10.561 21.024 10.8831 21.7005C12.1464 24.3544 14.8401 26.1913 17.9717 26.1913C21.1037 26.1913 23.7969 24.3544 25.0607 21.7005C25.3823 21.024 25.0235 20.4657 24.2754 20.4657H11.668Z" fill="#0000FF"/>
<path id="Fill 1" fill-rule="evenodd" clip-rule="evenodd" d="M49.9336 31.2159H55.6253V5.1651H49.9336V31.2159Z" fill="black"/>
<path id="Fill 2" fill-rule="evenodd" clip-rule="evenodd" d="M77.5423 11.662C76.3732 10.9961 74.9835 10.6638 73.3735 10.6638C72.4352 10.6638 71.4728 10.8319 70.4863 11.1689C69.4985 11.5046 68.613 11.9719 67.8285 12.5676C67.3526 12.9291 66.9519 13.327 66.6104 13.7529L66.3158 11.1896H61.7793V31.2159H67.0935V20.2765C67.0935 19.407 67.3002 18.6196 67.714 17.9105C68.1261 17.2018 68.6866 16.6371 69.3941 16.2176C70.1004 15.7963 70.8883 15.5859 71.7564 15.5859C72.6385 15.5859 73.3871 15.7692 74.0042 16.1337C74.6196 16.4982 75.0862 17.0308 75.4007 17.731C75.7151 18.4329 75.8741 19.3231 75.8741 20.4031V31.2159H81.2293V19.2253C81.2293 17.402 80.9064 15.8531 80.2635 14.5759C79.6193 13.3003 78.7114 12.3279 77.5423 11.662" fill="black"/>
<path id="Fill 6" fill-rule="evenodd" clip-rule="evenodd" d="M91.984 7.07661V5.16525H86.5637V11.224H83.624V16.103H86.6068V31.216H91.9616V16.103H96.4364V11.224H87.8431C90.1298 11.224 91.984 9.36728 91.984 7.07661" fill="black"/>
<path id="Fill 4" fill-rule="evenodd" clip-rule="evenodd" d="M113.195 24.1165C112.72 24.9657 112.069 25.6316 111.242 26.1142C110.416 26.5989 109.498 26.8402 108.491 26.8402C107.483 26.8402 106.568 26.5989 105.75 26.1142C104.931 25.6316 104.287 24.9657 103.818 24.1165C103.348 23.2673 103.114 22.3173 103.114 21.2662C103.114 20.2286 103.348 19.2786 103.818 18.4159C104.287 17.5527 104.934 16.8766 105.76 16.3851C106.586 15.8941 107.496 15.6494 108.491 15.6494C109.498 15.6494 110.416 15.8941 111.242 16.3851C112.069 16.8766 112.72 17.5527 113.195 18.4159C113.672 19.2786 113.91 20.2286 113.91 21.2662C113.91 22.3173 113.672 23.2673 113.195 24.1165M117.764 15.911C116.833 14.2917 115.554 13.0162 113.93 12.0832C112.306 11.1502 110.493 10.6845 108.491 10.6845C106.488 10.6845 104.671 11.1536 103.041 12.0934C101.408 13.0332 100.131 14.3138 99.2067 15.9334C98.2836 17.5527 97.8203 19.3299 97.8203 21.2662C97.8203 23.2161 98.2836 24.9932 99.2067 26.5989C100.131 28.2047 101.405 29.4768 103.03 30.4166C104.654 31.3564 106.468 31.8254 108.469 31.8254C110.486 31.8254 112.313 31.3598 113.951 30.4267C115.59 29.4937 116.867 28.2254 117.785 26.6193C118.701 25.0136 119.16 23.2296 119.16 21.2662C119.16 19.3163 118.694 17.5324 117.764 15.911" fill="black"/>
<path id="Fill 8" fill-rule="evenodd" clip-rule="evenodd" d="M120.802 7.26186H121.007C121.246 7.26186 121.44 7.18185 121.44 6.98796C121.44 6.81693 121.314 6.70263 121.041 6.70263C120.927 6.70263 120.847 6.71364 120.802 6.72507V7.26186ZM120.791 8.32273H120.357V6.45159C120.528 6.4173 120.767 6.39402 121.075 6.39402C121.428 6.39402 121.588 6.45159 121.724 6.5316C121.827 6.61077 121.907 6.75936 121.907 6.94224C121.907 7.14756 121.747 7.30758 121.519 7.37531V7.39859C121.701 7.46717 121.804 7.60391 121.861 7.85453C121.918 8.13985 121.952 8.25415 121.998 8.32273H121.531C121.474 8.25415 121.44 8.08313 121.383 7.86553C121.348 7.66022 121.234 7.5692 120.996 7.5692H120.791V8.32273ZM119.64 7.34102C119.64 8.17414 120.255 8.83539 121.098 8.83539C121.918 8.83539 122.522 8.17414 122.522 7.35287C122.522 6.51975 121.918 5.84707 121.086 5.84707C120.255 5.84707 119.64 6.51975 119.64 7.34102V7.34102ZM123 7.34102C123 8.40275 122.169 9.23502 121.086 9.23502C120.015 9.23502 119.161 8.40275 119.161 7.34102C119.161 6.303 120.015 5.46988 121.086 5.46988C122.169 5.46988 123 6.303 123 7.34102V7.34102Z" fill="black"/>
<path id="Fill 10" fill-rule="evenodd" clip-rule="evenodd" d="M30.7374 18.5823C30.0273 18.5823 29.4001 19.0878 29.291 19.7909C28.9207 22.179 27.8112 24.3795 26.0762 26.1181C23.8419 28.3554 20.9061 29.4743 17.9711 29.4743C15.0361 29.4743 12.101 28.3554 9.86638 26.1181C7.70485 23.9532 6.51418 21.0698 6.51418 17.9998C6.51418 14.9298 7.70442 12.0477 9.86596 9.88318C14.3348 5.40514 21.6064 5.40599 26.0762 9.88318L34.7616 18.5823H30.7374ZM30.685 5.26629C27.2943 1.86987 22.7794 0 17.9711 0C13.1628 0 8.64782 1.86987 5.25759 5.26629C1.86693 8.66271 0 13.1852 0 17.9998C0 22.8161 1.86693 27.3386 5.25759 30.7337C8.64782 34.1301 13.1628 36 17.9711 36C22.7794 36 27.2943 34.1301 30.685 30.7337C33.9374 27.4766 35.7697 23.178 35.9147 18.5823H41.6161C42.9166 18.5823 43.2281 17.8288 42.3084 16.9076L30.685 5.26629Z" fill="#0000FF"/>
</g>
</svg>
